<?xml version="1.0" ?>
<svg xmlns="http://www.w3.org/2000/svg" version="1.1" viewBox="0 0 1024 1024">
	<path d="M 507 983 L 511 983 Z" fill="#c85c09"/>
	<path d="M 516 982 L 516 983 L 517 982 L 518 982 Z" fill="#c85c09"/>
	<path d="M 496 982 Z" fill="#c85c09"/>
	<path d="M 527 981 Z" fill="#c85c09"/>
	<path d="M 488 979 Z" fill="#c85c09"/>
	<path d="M 478 975 Z" fill="#c85c09"/>
	<path d="M 543 967 Z" fill="#c85c09"/>
	<path d="M 326 951 Z" fill="#c85c09"/>
	<path d="M 314 946 Z" fill="#c85c09"/>
	<path d="M 707 943 Z" fill="#c85c09"/>
	<path d="M 705 943 Z" fill="#c85c09"/>
	<path d="M 299 943 Z" fill="#c85c09"/>
	<path d="M 650 942 L 651 942 Z" fill="#c85c09"/>
	<path d="M 377 942 Z" fill="#c85c09"/>
	<path d="M 295 942 Z" fill="#c85c09"/>
	<path d="M 448 937 Z" fill="#c85c09"/>
	<path d="M 566 935 Z" fill="#c85c09"/>
	<path d="M 399 935 Z" fill="#c85c09"/>
	<path d="M 276 935 Z" fill="#c85c09"/>
	<path d="M 269 935 Z" fill="#c85c09"/>
	<path d="M 420 926 Z" fill="#c85c09"/>
	<path d="M 756 925 Z" fill="#c85c09"/>
	<path d="M 440 923 Z" fill="#c85c09"/>
	<path d="M 772 915 Z" fill="#c85c09"/>
	<path d="M 232 910 Z" fill="#c85c09"/>
	<path d="M 577 909 Z" fill="#c85c09"/>
	<path d="M 812 878 Z" fill="#c85c09"/>
	<path d="M 200 872 L 200 874 Z" fill="#c85c09"/>
	<path d="M 821 859 Z" fill="#c85c09"/>
	<path d="M 822 857 L 823 858 L 823 859 L 823 858 Z" fill="#c85c09"/>
	<path d="M 184 847 Z" fill="#c85c09"/>
	<path d="M 186 845 Z" fill="#c85c09"/>
	<path d="M 184 841 L 184 842 Z" fill="#c85c09"/>
	<path d="M 179 824 Z" fill="#c85c09"/>
	<path d="M 178 819 L 178 820 Z" fill="#c85c09"/>
	<path d="M 176 819 Z" fill="#c85c09"/>
	<path d="M 176 811 L 176 812 Z" fill="#c85c09"/>
	<path d="M 176 750 Z" fill="#c85c09"/>
	<path d="M 176 745 L 176 747 Z" fill="#c85c09"/>
	<path d="M 177 743 Z" fill="#c85c09"/>
	<path d="M 176 741 L 177 741 Z" fill="#c85c09"/>
	<path d="M 838 739 Z" fill="#c85c09"/>
	<path d="M 176 739 Z" fill="#c85c09"/>
	<path d="M 178 738 Z" fill="#c85c09"/>
	<path d="M 836 731 Z" fill="#c85c09"/>
	<path d="M 835 728 Z" fill="#c85c09"/>
	<path d="M 830 714 Z" fill="#c85c09"/>
	<path d="M 186 714 Z" fill="#c85c09"/>
	<path d="M 187 712 Z" fill="#c85c09"/>
	<path d="M 184 712 Z" fill="#c85c09"/>
	<path d="M 829 711 Z" fill="#c85c09"/>
	<path d="M 192 700 L 193 700 Z" fill="#c85c09"/>
	<path d="M 823 699 Z" fill="#c85c09"/>
	<path d="M 823 697 Z" fill="#c85c09"/>
	<path d="M 195 696 Z" fill="#c85c09"/>
	<path d="M 205 681 Z" fill="#c85c09"/>
	<path d="M 201 680 Z" fill="#c85c09"/>
	<path d="M 807 674 Z" fill="#c85c09"/>
	<path d="M 803 670 Z" fill="#c85c09"/>
	<path d="M 819 662 Z" fill="#c85c09"/>
	<path d="M 189 662 Z" fill="#c85c09"/>
	<path d="M 184 659 Z" fill="#c85c09"/>
	<path d="M 833 653 Z" fill="#c85c09"/>
	<path d="M 176 653 Z" fill="#c85c09"/>
	<path d="M 847 642 Z" fill="#c85c09"/>
	<path d="M 854 638 Z" fill="#c85c09"/>
	<path d="M 852 638 Z" fill="#c85c09"/>
	<path d="M 855 635 Z" fill="#c85c09"/>
	<path d="M 868 622 Z" fill="#c85c09"/>
	<path d="M 142 622 Z" fill="#c85c09"/>
	<path d="M 140 622 Z" fill="#c85c09"/>
	<path d="M 121 597 Z" fill="#c85c09"/>
	<path d="M 114 582 Z" fill="#c85c09"/>
	<path d="M 903 567 Z" fill="#c85c09"/>
	<path d="M 105 563 Z" fill="#c85c09"/>
	<path d="M 100 550 L 100 551 Z" fill="#c85c09"/>
	<path d="M 96 544 Z" fill="#c85c09"/>
	<path d="M 96 536 Z" fill="#c85c09"/>
	<path d="M 919 515 Z" fill="#c85c09"/>
	<path d="M 919 513 Z" fill="#c85c09"/>
	<path d="M 91 511 Z" fill="#c85c09"/>
	<path d="M 91 508 L 91 509 Z" fill="#c85c09"/>
	<path d="M 90 502 Z" fill="#c85c09"/>
	<path d="M 90 499 L 90 500 Z" fill="#c85c09"/>
	<path d="M 88 499 Z" fill="#c85c09"/>
	<path d="M 89 490 L 88 491 Z" fill="#c85c09"/>
	<path d="M 89 483 L 89 487 Z" fill="#c85c09"/>
	<path d="M 89 481 Z" fill="#c85c09"/>
	<path d="M 89 476 L 89 477 Z" fill="#c85c09"/>
	<path d="M 89 468 L 89 469 Z" fill="#c85c09"/>
	<path d="M 88 465 L 89 466 Z" fill="#c85c09"/>
	<path d="M 88 459 Z" fill="#c85c09"/>
	<path d="M 91 449 Z" fill="#c85c09"/>
	<path d="M 919 441 L 919 443 Z" fill="#c85c09"/>
	<path d="M 918 435 Z" fill="#c85c09"/>
	<path d="M 96 423 L 96 424 Z" fill="#c85c09"/>
	<path d="M 105 395 Z" fill="#c85c09"/>
	<path d="M 883 352 Z" fill="#c85c09"/>
	<path d="M 427 348 Z" fill="#c85c09"/>
	<path d="M 131 345 Z" fill="#c85c09"/>
	<path d="M 136 339 Z" fill="#c85c09"/>
	<path d="M 595 336 L 595 337 Z" fill="#c85c09"/>
	<path d="M 139 336 Z" fill="#c85c09"/>
	<path d="M 432 331 Z" fill="#c85c09"/>
	<path d="M 434 329 Z" fill="#c85c09"/>
	<path d="M 405 322 Z" fill="#c85c09"/>
	<path d="M 437 321 Z" fill="#c85c09"/>
	<path d="M 401 320 Z" fill="#c85c09"/>
	<path d="M 440 315 Z" fill="#c85c09"/>
	<path d="M 160 314 Z" fill="#c85c09"/>
	<path d="M 163 313 Z" fill="#c85c09"/>
	<path d="M 625 307 Z" fill="#c85c09"/>
	<path d="M 575 306 Z" fill="#c85c09"/>
	<path d="M 627 304 Z" fill="#c85c09"/>
	<path d="M 169 304 L 169 305 L 170 306 L 169 305 Z" fill="#c85c09"/>
	<path d="M 632 299 Z" fill="#c85c09"/>
	<path d="M 638 298 Z" fill="#c85c09"/>
	<path d="M 371 296 Z" fill="#c85c09"/>
	<path d="M 648 291 Z" fill="#c85c09"/>
	<path d="M 194 291 Z" fill="#c85c09"/>
	<path d="M 194 289 L 195 289 Z" fill="#c85c09"/>
	<path d="M 655 288 Z" fill="#c85c09"/>
	<path d="M 666 283 Z" fill="#c85c09"/>
	<path d="M 664 283 Z" fill="#c85c09"/>
	<path d="M 209 282 L 210 283 Z" fill="#c85c09"/>
	<path d="M 340 281 L 341 281 Z" fill="#c85c09"/>
	<path d="M 673 280 L 674 280 Z" fill="#c85c09"/>
	<path d="M 778 275 Z" fill="#c85c09"/>
	<path d="M 688 275 Z" fill="#c85c09"/>
	<path d="M 322 275 Z" fill="#c85c09"/>
	<path d="M 232 275 Z" fill="#c85c09"/>
	<path d="M 776 274 Z" fill="#c85c09"/>
	<path d="M 772 273 Z" fill="#c85c09"/>
	<path d="M 465 273 Z" fill="#c85c09"/>
	<path d="M 316 273 Z" fill="#c85c09"/>
	<path d="M 699 272 Z" fill="#c85c09"/>
	<path d="M 309 272 L 311 272 Z" fill="#c85c09"/>
	<path d="M 245 272 Z" fill="#c85c09"/>
	<path d="M 241 272 L 241 273 Z" fill="#c85c09"/>
	<path d="M 288 269 Z" fill="#c85c09"/>
	<path d="M 292 268 Z" fill="#c85c09"/>
	<path d="M 472 267 Z" fill="#c85c09"/>
	<path d="M 535 258 Z" fill="#c85c09"/>
	<path d="M 524 252 Z" fill="#c85c09"/>
	<path d="M 507 251 L 506 252 L 501 252 L 500 253 L 498 253 L 497 254 L 495 254 L 494 255 L 493 255 L 492 256 L 491 256 L 490 257 L 489 257 L 488 256 L 489 257 L 488 258 L 487 258 L 484 261 L 483 261 L 480 264 L 479 264 L 478 265 L 477 264 L 478 265 L 476 267 L 475 266 L 476 267 L 473 270 L 472 269 L 473 270 L 468 275 L 467 274 L 468 275 L 467 276 L 467 277 L 462 282 L 462 283 L 460 285 L 460 286 L 457 289 L 456 288 L 457 289 L 457 290 L 455 292 L 455 293 L 453 295 L 453 296 L 451 298 L 451 299 L 450 300 L 450 301 L 449 302 L 449 303 L 447 305 L 447 306 L 446 307 L 446 308 L 445 309 L 445 310 L 444 311 L 444 312 L 443 313 L 443 314 L 442 315 L 442 316 L 441 317 L 441 318 L 440 319 L 440 320 L 439 321 L 439 323 L 438 324 L 438 325 L 437 326 L 437 327 L 436 328 L 436 330 L 435 331 L 435 332 L 434 333 L 434 335 L 433 336 L 433 337 L 432 338 L 432 340 L 431 341 L 431 343 L 430 344 L 430 346 L 429 347 L 429 350 L 428 351 L 428 353 L 427 354 L 424 351 L 424 350 L 422 348 L 422 347 L 423 346 L 422 347 L 419 344 L 419 343 L 416 340 L 416 339 L 414 337 L 415 336 L 414 337 L 411 334 L 411 333 L 406 328 L 407 327 L 406 328 L 396 318 L 395 318 L 393 316 L 394 315 L 393 316 L 390 313 L 391 312 L 390 313 L 388 311 L 387 311 L 383 307 L 382 307 L 379 304 L 378 304 L 376 302 L 375 302 L 373 300 L 372 300 L 370 298 L 369 298 L 367 296 L 366 296 L 365 295 L 364 295 L 363 294 L 362 294 L 360 292 L 359 292 L 358 291 L 357 291 L 356 290 L 355 290 L 354 289 L 353 289 L 352 288 L 351 288 L 350 287 L 349 287 L 348 286 L 347 286 L 346 285 L 344 285 L 343 284 L 342 284 L 341 283 L 339 283 L 338 282 L 337 282 L 336 281 L 334 281 L 333 280 L 332 280 L 331 279 L 328 279 L 327 278 L 325 278 L 324 277 L 321 277 L 320 276 L 320 274 L 320 275 L 319 276 L 318 276 L 317 275 L 318 274 L 317 275 L 313 275 L 312 274 L 308 274 L 307 273 L 307 272 L 306 272 L 305 273 L 302 273 L 301 272 L 294 272 L 293 271 L 262 271 L 261 272 L 254 272 L 253 273 L 249 273 L 248 272 L 249 273 L 248 274 L 244 274 L 243 275 L 239 275 L 238 276 L 236 276 L 235 277 L 232 277 L 231 278 L 229 278 L 228 279 L 226 279 L 225 280 L 223 280 L 222 281 L 220 281 L 219 280 L 218 280 L 219 280 L 220 281 L 219 282 L 217 282 L 216 283 L 215 283 L 214 284 L 213 284 L 212 285 L 210 285 L 209 286 L 208 286 L 207 287 L 206 287 L 205 288 L 204 288 L 203 289 L 202 289 L 201 288 L 200 288 L 201 288 L 202 289 L 201 290 L 200 290 L 199 291 L 198 291 L 197 292 L 196 292 L 195 293 L 194 293 L 192 295 L 191 295 L 190 296 L 189 296 L 187 298 L 186 298 L 185 299 L 184 299 L 181 302 L 180 302 L 178 304 L 177 304 L 173 308 L 172 308 L 168 312 L 167 312 L 160 319 L 159 319 L 153 325 L 153 326 L 152 327 L 151 327 L 151 328 L 142 337 L 142 338 L 138 342 L 138 343 L 134 347 L 134 348 L 132 350 L 132 351 L 129 354 L 129 355 L 127 357 L 127 358 L 125 360 L 125 361 L 124 362 L 124 363 L 122 365 L 122 366 L 120 368 L 120 369 L 119 370 L 119 371 L 118 372 L 118 373 L 117 374 L 117 375 L 116 376 L 116 377 L 115 378 L 115 379 L 114 380 L 114 381 L 113 382 L 113 383 L 111 385 L 111 387 L 110 388 L 110 389 L 109 390 L 109 391 L 108 392 L 108 394 L 107 395 L 107 396 L 106 397 L 106 399 L 105 400 L 104 400 L 105 401 L 105 402 L 104 403 L 104 404 L 103 405 L 103 407 L 102 408 L 102 411 L 101 412 L 101 414 L 100 415 L 100 417 L 99 418 L 99 421 L 98 422 L 96 420 L 97 419 L 97 418 L 96 418 L 96 420 L 98 422 L 98 425 L 97 426 L 97 429 L 96 430 L 96 434 L 95 435 L 95 439 L 94 440 L 94 446 L 93 447 L 93 454 L 92 455 L 92 465 L 91 466 L 91 493 L 92 494 L 92 506 L 93 507 L 93 513 L 94 514 L 94 520 L 95 521 L 95 526 L 96 527 L 96 530 L 97 531 L 97 533 L 96 534 L 97 534 L 98 535 L 98 538 L 99 539 L 99 541 L 98 542 L 97 541 L 96 541 L 97 541 L 98 542 L 98 543 L 98 542 L 99 541 L 100 542 L 100 545 L 101 546 L 101 548 L 102 549 L 102 551 L 103 552 L 103 553 L 104 554 L 104 556 L 105 557 L 105 558 L 106 559 L 106 561 L 107 562 L 107 563 L 108 564 L 108 566 L 107 567 L 108 566 L 109 567 L 109 568 L 108 569 L 109 568 L 110 569 L 110 570 L 111 571 L 111 572 L 112 573 L 112 575 L 113 576 L 113 577 L 114 578 L 114 579 L 113 580 L 114 579 L 116 581 L 116 582 L 117 583 L 117 584 L 118 585 L 118 586 L 120 588 L 120 589 L 121 590 L 121 591 L 123 593 L 123 594 L 122 595 L 123 596 L 123 597 L 124 596 L 126 598 L 126 599 L 129 602 L 129 603 L 130 604 L 129 605 L 129 606 L 129 605 L 130 604 L 131 605 L 131 606 L 134 609 L 134 610 L 138 614 L 138 615 L 144 621 L 144 622 L 149 627 L 148 628 L 149 627 L 160 638 L 161 638 L 167 644 L 168 644 L 170 646 L 169 647 L 170 646 L 172 648 L 173 648 L 176 651 L 177 651 L 180 654 L 179 655 L 180 655 L 181 654 L 183 656 L 184 656 L 185 657 L 186 657 L 188 659 L 189 659 L 191 661 L 192 661 L 193 662 L 194 662 L 195 663 L 196 663 L 198 665 L 199 665 L 200 666 L 201 666 L 202 667 L 201 668 L 200 668 L 201 668 L 202 669 L 203 669 L 204 670 L 205 670 L 206 671 L 205 670 L 206 669 L 208 669 L 209 670 L 210 670 L 211 671 L 213 671 L 214 672 L 214 673 L 212 675 L 212 676 L 207 681 L 207 682 L 205 684 L 205 685 L 202 688 L 202 689 L 201 690 L 200 689 L 200 688 L 200 689 L 201 690 L 200 691 L 200 692 L 199 693 L 199 694 L 197 696 L 197 697 L 196 698 L 196 699 L 195 700 L 195 701 L 193 703 L 192 703 L 193 704 L 192 705 L 192 706 L 191 707 L 191 709 L 190 710 L 190 711 L 189 712 L 189 713 L 188 714 L 188 715 L 187 716 L 187 717 L 186 718 L 186 720 L 185 721 L 184 720 L 184 719 L 184 720 L 185 721 L 185 722 L 184 723 L 184 726 L 183 727 L 183 729 L 182 730 L 182 732 L 181 733 L 181 736 L 180 737 L 179 736 L 179 735 L 179 736 L 180 737 L 180 740 L 179 741 L 179 745 L 178 746 L 178 751 L 177 752 L 176 752 L 177 753 L 177 759 L 176 760 L 176 769 L 175 770 L 175 786 L 176 787 L 176 800 L 177 801 L 177 806 L 178 807 L 178 813 L 179 814 L 179 817 L 180 818 L 180 822 L 181 823 L 181 825 L 180 826 L 181 825 L 182 826 L 182 828 L 183 829 L 183 831 L 184 832 L 184 835 L 185 836 L 185 837 L 186 838 L 186 840 L 187 841 L 187 843 L 188 844 L 188 845 L 189 846 L 189 848 L 190 849 L 190 850 L 191 851 L 191 852 L 192 853 L 192 854 L 193 855 L 193 856 L 192 857 L 192 858 L 192 857 L 193 856 L 194 857 L 194 858 L 195 859 L 195 860 L 196 861 L 196 862 L 195 863 L 194 862 L 195 863 L 196 862 L 197 863 L 197 864 L 199 866 L 199 867 L 200 868 L 200 869 L 202 871 L 202 872 L 204 874 L 204 875 L 203 876 L 202 875 L 202 876 L 203 876 L 204 877 L 204 878 L 205 879 L 206 878 L 209 881 L 209 882 L 208 883 L 208 884 L 209 885 L 210 885 L 211 884 L 213 886 L 213 887 L 219 893 L 219 894 L 225 900 L 224 901 L 225 902 L 226 901 L 229 904 L 230 904 L 234 908 L 235 908 L 237 910 L 236 911 L 235 911 L 236 911 L 237 910 L 239 912 L 240 912 L 243 915 L 241 917 L 243 915 L 244 915 L 246 917 L 245 918 L 246 917 L 247 917 L 249 919 L 250 919 L 252 921 L 253 921 L 254 922 L 255 922 L 257 924 L 258 924 L 259 925 L 258 926 L 259 925 L 260 925 L 261 926 L 260 927 L 261 926 L 262 926 L 263 927 L 264 927 L 265 928 L 266 928 L 267 929 L 268 929 L 269 930 L 270 930 L 271 931 L 272 931 L 273 932 L 274 932 L 275 933 L 277 933 L 278 934 L 279 934 L 280 935 L 282 935 L 283 936 L 285 936 L 286 937 L 288 937 L 289 938 L 291 938 L 292 939 L 294 939 L 295 940 L 298 940 L 299 941 L 302 941 L 303 942 L 307 942 L 308 943 L 312 943 L 313 944 L 319 944 L 320 945 L 352 945 L 353 944 L 359 944 L 360 943 L 366 943 L 367 942 L 371 942 L 372 943 L 375 943 L 372 943 L 371 942 L 372 941 L 375 941 L 376 940 L 378 940 L 379 939 L 382 939 L 383 938 L 384 938 L 385 937 L 387 937 L 388 936 L 390 936 L 391 935 L 393 935 L 394 934 L 395 934 L 396 935 L 397 935 L 396 934 L 397 933 L 398 933 L 399 932 L 400 932 L 401 933 L 400 932 L 401 931 L 402 931 L 403 932 L 402 931 L 403 930 L 404 930 L 405 929 L 406 929 L 407 928 L 408 928 L 409 927 L 410 927 L 411 926 L 412 926 L 413 927 L 412 926 L 414 924 L 415 924 L 416 923 L 417 923 L 418 922 L 419 922 L 420 923 L 419 922 L 421 920 L 422 920 L 424 918 L 425 918 L 427 916 L 428 916 L 432 912 L 433 912 L 435 910 L 436 911 L 435 910 L 436 909 L 437 909 L 438 908 L 440 910 L 440 912 L 441 913 L 441 915 L 442 916 L 442 918 L 443 919 L 443 920 L 442 921 L 443 920 L 444 921 L 444 923 L 443 924 L 442 923 L 443 924 L 443 925 L 444 926 L 444 927 L 445 926 L 446 927 L 446 928 L 447 929 L 447 930 L 448 931 L 448 932 L 449 933 L 449 934 L 450 935 L 450 936 L 451 937 L 451 938 L 450 939 L 450 941 L 451 941 L 452 942 L 453 941 L 454 942 L 454 943 L 456 945 L 456 946 L 458 948 L 458 949 L 461 952 L 461 953 L 464 956 L 464 957 L 471 964 L 471 965 L 472 965 L 478 971 L 478 972 L 479 971 L 481 973 L 480 974 L 481 973 L 482 974 L 483 974 L 484 975 L 485 975 L 486 976 L 487 976 L 488 977 L 489 977 L 490 978 L 492 978 L 493 979 L 495 979 L 496 980 L 499 980 L 500 981 L 500 982 L 501 983 L 502 983 L 501 983 L 500 982 L 501 981 L 514 981 L 515 980 L 518 980 L 519 979 L 522 979 L 523 978 L 524 978 L 525 977 L 526 977 L 527 976 L 528 976 L 529 975 L 530 975 L 531 974 L 532 974 L 533 975 L 532 974 L 536 970 L 537 970 L 549 958 L 549 957 L 552 954 L 552 953 L 555 950 L 555 949 L 557 947 L 558 948 L 557 947 L 557 946 L 558 945 L 559 946 L 558 945 L 558 944 L 560 942 L 560 941 L 561 940 L 561 939 L 563 937 L 563 936 L 564 935 L 564 934 L 565 933 L 565 932 L 566 931 L 567 932 L 567 933 L 567 932 L 566 931 L 566 929 L 568 927 L 568 925 L 569 924 L 569 922 L 570 921 L 570 920 L 571 919 L 571 917 L 572 916 L 572 914 L 573 913 L 573 912 L 574 911 L 574 909 L 575 908 L 575 905 L 576 904 L 576 902 L 577 901 L 578 902 L 578 903 L 579 904 L 580 904 L 585 909 L 586 909 L 589 912 L 590 912 L 593 915 L 594 915 L 595 916 L 593 918 L 592 918 L 593 918 L 595 916 L 596 917 L 597 917 L 598 918 L 599 918 L 602 921 L 603 921 L 604 922 L 605 922 L 606 923 L 607 923 L 609 925 L 608 926 L 609 925 L 610 925 L 611 926 L 612 926 L 613 927 L 614 927 L 615 928 L 617 928 L 618 929 L 617 930 L 617 931 L 618 931 L 617 930 L 618 929 L 619 929 L 620 930 L 621 930 L 622 931 L 623 931 L 624 932 L 626 932 L 627 933 L 628 933 L 629 934 L 628 935 L 629 934 L 631 934 L 632 935 L 634 935 L 635 936 L 637 936 L 638 937 L 641 937 L 642 938 L 645 938 L 646 939 L 649 939 L 650 940 L 654 940 L 655 941 L 659 941 L 660 942 L 659 943 L 660 943 L 661 942 L 668 942 L 669 943 L 694 943 L 695 942 L 700 942 L 701 943 L 703 943 L 702 942 L 703 941 L 708 941 L 709 940 L 713 940 L 714 939 L 717 939 L 718 938 L 720 938 L 721 937 L 724 937 L 725 936 L 727 936 L 728 935 L 730 935 L 731 934 L 733 934 L 734 935 L 735 935 L 734 935 L 733 934 L 734 933 L 736 933 L 737 932 L 738 932 L 739 931 L 740 931 L 741 930 L 742 930 L 743 929 L 744 929 L 745 928 L 746 928 L 747 927 L 749 927 L 750 926 L 751 927 L 751 926 L 752 925 L 753 925 L 755 923 L 756 923 L 757 922 L 758 922 L 760 920 L 761 920 L 762 919 L 763 919 L 765 917 L 766 917 L 767 918 L 767 919 L 767 918 L 766 917 L 767 916 L 768 916 L 769 917 L 768 916 L 771 913 L 772 913 L 775 910 L 776 910 L 779 907 L 780 907 L 782 905 L 783 906 L 782 905 L 789 898 L 790 898 L 790 897 L 798 889 L 799 890 L 798 889 L 802 885 L 802 884 L 805 881 L 805 880 L 808 877 L 808 876 L 810 874 L 810 873 L 813 870 L 814 871 L 813 870 L 813 869 L 814 868 L 814 867 L 816 865 L 816 864 L 817 863 L 817 862 L 818 861 L 818 860 L 819 859 L 819 858 L 820 857 L 820 856 L 822 854 L 823 855 L 822 854 L 822 853 L 823 852 L 823 851 L 824 850 L 824 848 L 825 847 L 825 846 L 826 845 L 826 844 L 827 843 L 827 841 L 828 840 L 828 839 L 829 838 L 829 836 L 830 835 L 831 836 L 831 838 L 831 836 L 830 835 L 830 833 L 831 832 L 831 830 L 832 829 L 832 827 L 833 826 L 833 823 L 834 822 L 834 820 L 835 819 L 835 816 L 836 815 L 836 811 L 837 810 L 837 806 L 838 805 L 839 806 L 839 809 L 839 804 L 838 803 L 838 800 L 839 799 L 839 791 L 840 790 L 840 761 L 839 760 L 839 752 L 838 751 L 838 748 L 839 747 L 838 747 L 837 746 L 837 742 L 836 741 L 836 737 L 835 736 L 835 734 L 834 733 L 834 730 L 833 729 L 833 727 L 832 726 L 832 723 L 831 722 L 831 721 L 830 720 L 830 718 L 829 717 L 829 716 L 828 715 L 828 713 L 827 712 L 827 711 L 826 710 L 826 709 L 825 708 L 825 707 L 824 706 L 824 705 L 825 704 L 824 705 L 823 704 L 823 703 L 822 702 L 822 701 L 821 700 L 821 699 L 820 698 L 820 697 L 818 695 L 818 694 L 817 693 L 817 692 L 815 690 L 815 689 L 814 688 L 815 687 L 814 688 L 813 687 L 813 686 L 814 685 L 813 686 L 811 684 L 811 683 L 808 680 L 808 679 L 804 675 L 804 674 L 800 670 L 802 668 L 803 668 L 804 667 L 805 667 L 806 666 L 808 666 L 810 664 L 811 664 L 812 663 L 813 663 L 814 662 L 815 662 L 816 661 L 817 661 L 818 660 L 819 660 L 821 658 L 822 658 L 823 657 L 824 657 L 826 655 L 827 655 L 829 653 L 830 653 L 831 654 L 831 655 L 831 654 L 830 653 L 832 651 L 833 651 L 836 648 L 837 648 L 840 645 L 841 645 L 846 640 L 847 640 L 857 630 L 858 630 L 858 629 L 862 625 L 863 626 L 862 625 L 868 619 L 868 618 L 874 612 L 875 613 L 874 612 L 874 611 L 877 608 L 878 609 L 877 608 L 878 607 L 878 606 L 880 604 L 880 603 L 882 601 L 882 600 L 885 597 L 885 596 L 886 595 L 887 596 L 887 597 L 887 596 L 886 595 L 886 594 L 888 592 L 888 591 L 890 589 L 890 588 L 891 587 L 891 586 L 892 585 L 892 584 L 894 582 L 895 583 L 895 582 L 894 581 L 895 580 L 895 579 L 896 578 L 896 577 L 897 576 L 897 575 L 898 574 L 898 573 L 899 572 L 899 571 L 900 570 L 901 571 L 900 570 L 900 569 L 901 568 L 901 566 L 902 565 L 902 564 L 903 563 L 903 561 L 904 560 L 904 559 L 905 558 L 905 557 L 906 556 L 906 554 L 907 553 L 907 551 L 908 550 L 908 548 L 909 547 L 909 545 L 910 544 L 911 545 L 911 546 L 911 545 L 910 544 L 910 542 L 911 541 L 911 538 L 912 537 L 912 535 L 913 534 L 913 531 L 914 530 L 914 527 L 915 526 L 915 521 L 916 520 L 916 516 L 917 515 L 917 510 L 918 509 L 919 510 L 919 511 L 919 509 L 918 508 L 918 503 L 919 502 L 919 489 L 920 488 L 920 469 L 919 468 L 920 467 L 919 466 L 919 453 L 918 452 L 918 451 L 919 450 L 918 449 L 919 448 L 918 447 L 918 446 L 917 445 L 917 440 L 916 439 L 916 434 L 915 433 L 915 430 L 914 429 L 914 425 L 913 424 L 913 421 L 912 420 L 912 418 L 911 417 L 911 414 L 910 413 L 910 411 L 911 410 L 911 408 L 911 410 L 910 411 L 909 410 L 909 408 L 908 407 L 908 405 L 907 404 L 907 402 L 906 401 L 906 400 L 905 399 L 905 397 L 904 396 L 904 395 L 903 394 L 903 392 L 902 391 L 902 390 L 901 389 L 901 387 L 902 386 L 901 387 L 900 386 L 900 385 L 899 384 L 899 383 L 900 382 L 899 383 L 898 382 L 898 381 L 897 380 L 897 379 L 896 378 L 896 377 L 897 376 L 896 377 L 895 376 L 895 375 L 894 374 L 894 373 L 893 372 L 893 371 L 891 369 L 891 368 L 890 367 L 890 366 L 888 364 L 888 363 L 887 362 L 887 361 L 886 360 L 887 359 L 887 358 L 886 357 L 885 358 L 883 356 L 883 355 L 881 353 L 881 352 L 879 350 L 879 349 L 878 348 L 879 347 L 879 346 L 879 347 L 878 348 L 876 346 L 876 345 L 873 342 L 873 341 L 869 337 L 869 336 L 859 326 L 859 325 L 858 324 L 857 324 L 856 323 L 856 322 L 855 321 L 854 321 L 848 315 L 849 314 L 848 315 L 846 313 L 845 313 L 841 309 L 840 309 L 837 306 L 839 304 L 838 305 L 837 304 L 838 305 L 837 306 L 836 306 L 833 303 L 832 303 L 830 301 L 831 300 L 830 301 L 829 300 L 828 300 L 827 299 L 826 299 L 823 296 L 822 296 L 821 295 L 820 295 L 819 294 L 818 294 L 817 293 L 816 293 L 814 291 L 815 290 L 814 291 L 813 291 L 812 290 L 811 290 L 810 289 L 811 288 L 810 289 L 809 289 L 808 288 L 807 288 L 806 287 L 805 287 L 804 286 L 803 286 L 802 285 L 800 285 L 799 284 L 798 284 L 797 283 L 795 283 L 794 282 L 793 282 L 792 281 L 790 281 L 789 280 L 787 280 L 786 279 L 784 279 L 783 278 L 783 277 L 782 278 L 781 278 L 780 277 L 777 277 L 776 276 L 774 276 L 773 275 L 769 275 L 768 274 L 765 274 L 764 273 L 765 272 L 767 272 L 764 272 L 763 273 L 759 273 L 758 272 L 751 272 L 750 271 L 718 271 L 717 272 L 710 272 L 709 273 L 705 273 L 704 272 L 704 273 L 703 274 L 700 274 L 699 275 L 695 275 L 694 276 L 691 276 L 690 275 L 691 276 L 690 277 L 688 277 L 687 278 L 684 278 L 683 279 L 681 279 L 680 280 L 679 280 L 678 281 L 676 281 L 675 282 L 673 282 L 672 283 L 671 283 L 670 284 L 668 284 L 667 285 L 666 285 L 665 286 L 663 286 L 662 287 L 661 287 L 660 288 L 659 288 L 658 289 L 657 289 L 656 290 L 655 290 L 654 291 L 653 291 L 652 292 L 651 292 L 649 294 L 648 294 L 647 295 L 646 295 L 645 296 L 644 296 L 643 297 L 642 296 L 640 296 L 642 296 L 643 297 L 642 298 L 641 298 L 639 300 L 638 300 L 636 302 L 635 302 L 633 304 L 632 304 L 628 308 L 627 308 L 623 312 L 622 312 L 621 313 L 620 312 L 619 313 L 620 314 L 615 319 L 614 319 L 603 330 L 603 331 L 597 337 L 597 338 L 594 341 L 594 342 L 592 344 L 591 343 L 590 344 L 589 343 L 589 342 L 588 341 L 588 339 L 587 338 L 587 336 L 586 335 L 586 334 L 585 333 L 585 331 L 584 330 L 584 329 L 583 328 L 583 327 L 582 326 L 582 324 L 583 323 L 583 322 L 583 323 L 582 324 L 581 323 L 581 322 L 580 321 L 580 320 L 579 319 L 579 318 L 578 317 L 578 316 L 577 315 L 577 314 L 576 313 L 576 312 L 575 311 L 575 310 L 574 309 L 574 308 L 573 307 L 573 306 L 571 304 L 571 303 L 570 302 L 570 301 L 568 299 L 568 298 L 567 297 L 567 296 L 564 293 L 564 292 L 563 291 L 563 290 L 562 289 L 563 288 L 562 289 L 560 287 L 560 286 L 558 284 L 559 283 L 559 282 L 559 283 L 558 284 L 556 282 L 556 281 L 552 277 L 552 276 L 549 273 L 550 272 L 549 273 L 542 266 L 543 265 L 542 264 L 541 265 L 540 265 L 536 261 L 535 261 L 533 259 L 532 259 L 530 257 L 531 256 L 530 257 L 529 257 L 528 256 L 527 256 L 526 255 L 525 255 L 524 254 L 523 254 L 522 253 L 520 253 L 519 252 L 514 252 L 513 251 Z" fill="#c85c09"/>
	<path d="M 499 230 L 500 230 L 501 231 L 500 230 Z" fill="#c85c09"/>
	<path d="M 509 229 Z" fill="#c85c09"/>
	<path d="M 511 228 Z" fill="#c85c09"/>
	<path d="M 527 221 Z" fill="#c85c09"/>
	<path d="M 567 195 Z" fill="#c85c09"/>
	<path d="M 465 189 Z" fill="#c85c09"/>
	<path d="M 458 176 Z" fill="#c85c09"/>
	<path d="M 571 153 Z" fill="#c85c09"/>
	<path d="M 456 145 L 456 148 Z" fill="#c85c09"/>
	<path d="M 567 140 Z" fill="#c85c09"/>
	<path d="M 456 140 Z" fill="#c85c09"/>
	<path d="M 457 138 Z" fill="#c85c09"/>
	<path d="M 456 124 Z" fill="#c85c09"/>
	<path d="M 558 120 L 558 121 Z" fill="#c85c09"/>
	<path d="M 464 101 Z" fill="#c85c09"/>
	<path d="M 464 99 Z" fill="#c85c09"/>
	<path d="M 480 72 L 481 72 Z" fill="#c85c09"/>
	<path d="M 496 56 Z" fill="#c85c09"/>
	<path d="M 513 41 Z" fill="#c85c09"/>
	<path d="M 532 35 L 531 36 L 529 36 L 528 37 L 526 37 L 524 39 L 523 39 L 522 40 L 521 40 L 520 41 L 519 41 L 518 40 L 519 41 L 517 43 L 516 43 L 514 45 L 513 45 L 511 47 L 510 47 L 508 49 L 507 49 L 506 48 L 505 48 L 505 49 L 506 50 L 503 53 L 502 53 L 496 59 L 495 59 L 495 60 L 493 62 L 492 62 L 492 63 L 491 64 L 490 64 L 490 65 L 483 72 L 483 73 L 480 76 L 480 77 L 478 79 L 478 80 L 476 82 L 475 81 L 474 82 L 475 81 L 476 82 L 476 83 L 474 85 L 473 84 L 474 85 L 474 86 L 473 87 L 473 88 L 472 89 L 472 90 L 471 91 L 471 92 L 470 93 L 470 94 L 469 95 L 469 96 L 468 97 L 468 98 L 467 99 L 467 100 L 466 101 L 466 103 L 465 104 L 464 104 L 465 105 L 464 106 L 464 109 L 463 110 L 463 112 L 462 113 L 462 117 L 461 118 L 461 123 L 460 124 L 460 135 L 459 136 L 459 143 L 458 144 L 458 153 L 457 154 L 457 165 L 458 166 L 458 171 L 457 172 L 457 173 L 457 172 L 458 171 L 459 172 L 459 174 L 460 175 L 460 176 L 461 177 L 461 178 L 462 179 L 462 180 L 463 181 L 463 182 L 464 183 L 464 184 L 465 185 L 465 186 L 464 187 L 465 186 L 467 188 L 467 189 L 469 191 L 469 192 L 470 193 L 470 194 L 473 197 L 473 198 L 475 200 L 475 201 L 476 202 L 476 203 L 478 205 L 478 206 L 479 207 L 479 208 L 481 210 L 481 211 L 482 212 L 482 213 L 484 215 L 484 216 L 485 217 L 485 218 L 484 219 L 485 218 L 487 220 L 487 221 L 490 224 L 491 224 L 494 227 L 495 227 L 496 228 L 501 228 L 502 229 L 503 228 L 506 228 L 507 227 L 509 227 L 510 226 L 511 226 L 512 225 L 514 225 L 515 224 L 516 224 L 517 223 L 518 223 L 519 222 L 520 222 L 521 221 L 523 221 L 524 222 L 523 223 L 522 223 L 523 223 L 524 222 L 525 222 L 524 222 L 523 221 L 524 220 L 525 220 L 526 219 L 527 219 L 528 218 L 529 218 L 530 217 L 531 217 L 532 216 L 533 216 L 534 215 L 535 215 L 536 214 L 537 214 L 538 215 L 537 214 L 538 213 L 539 213 L 541 211 L 542 211 L 543 210 L 544 210 L 546 208 L 547 208 L 548 207 L 549 207 L 550 206 L 551 207 L 550 206 L 552 204 L 553 204 L 557 200 L 558 200 L 559 199 L 559 198 L 563 194 L 564 195 L 563 194 L 563 193 L 564 192 L 564 191 L 565 190 L 565 189 L 566 188 L 566 187 L 567 186 L 567 185 L 568 184 L 568 181 L 569 180 L 569 176 L 570 175 L 570 159 L 569 158 L 569 153 L 568 152 L 568 149 L 567 148 L 567 144 L 566 143 L 566 142 L 565 141 L 565 139 L 564 138 L 564 137 L 563 136 L 563 135 L 562 134 L 562 133 L 561 132 L 561 131 L 560 130 L 560 129 L 559 128 L 559 127 L 557 125 L 557 124 L 554 121 L 554 120 L 552 118 L 552 117 L 548 113 L 548 112 L 545 109 L 545 108 L 543 106 L 543 105 L 541 103 L 541 102 L 540 101 L 541 100 L 540 100 L 538 98 L 538 97 L 539 96 L 538 97 L 537 96 L 537 95 L 536 94 L 536 93 L 535 92 L 535 91 L 534 90 L 534 88 L 533 87 L 533 86 L 532 85 L 532 83 L 533 82 L 533 79 L 533 82 L 532 83 L 531 82 L 531 79 L 530 78 L 530 73 L 529 72 L 529 62 L 530 61 L 530 57 L 531 56 L 531 53 L 532 52 L 532 50 L 533 49 L 533 48 L 534 47 L 535 47 L 534 46 L 534 45 L 535 44 L 535 43 L 536 42 L 536 37 L 535 36 L 533 36 Z" fill="#c85c09"/>
	<path d="M 535 34 Z" fill="#c85c09"/>
</svg>
