<?xml version="1.0" ?>
<svg xmlns="http://www.w3.org/2000/svg" version="1.1" viewBox="0 0 1024 1024" fill="#c85c09">
	<path d="M 503 252 L 502 253 L 499 253 L 498 254 L 496 254 L 495 255 L 494 255 L 493 256 L 492 256 L 491 257 L 490 257 L 489 258 L 488 258 L 486 260 L 485 260 L 482 263 L 481 263 L 466 278 L 466 279 L 462 283 L 462 284 L 459 287 L 459 288 L 456 291 L 456 292 L 454 294 L 454 295 L 453 296 L 453 297 L 451 299 L 451 300 L 450 301 L 450 302 L 448 304 L 448 305 L 447 306 L 447 307 L 446 308 L 446 309 L 445 310 L 445 311 L 444 312 L 444 313 L 443 314 L 443 315 L 442 316 L 442 317 L 441 318 L 441 319 L 440 320 L 440 321 L 439 322 L 439 324 L 438 325 L 438 326 L 437 327 L 437 328 L 436 329 L 436 331 L 435 332 L 435 333 L 434 334 L 434 336 L 433 337 L 433 339 L 432 340 L 432 341 L 431 342 L 431 344 L 430 345 L 430 348 L 429 349 L 429 351 L 428 352 L 428 354 L 427 355 L 425 353 L 425 352 L 423 350 L 423 349 L 420 346 L 420 345 L 417 342 L 417 341 L 413 337 L 413 336 L 393 316 L 392 316 L 386 310 L 385 310 L 382 307 L 381 307 L 378 304 L 377 304 L 374 301 L 373 301 L 371 299 L 370 299 L 369 298 L 368 298 L 366 296 L 365 296 L 364 295 L 363 295 L 362 294 L 361 294 L 359 292 L 358 292 L 357 291 L 356 291 L 355 290 L 354 290 L 353 289 L 352 289 L 351 288 L 350 288 L 349 287 L 348 287 L 347 286 L 346 286 L 345 285 L 343 285 L 342 284 L 341 284 L 340 283 L 338 283 L 337 282 L 335 282 L 334 281 L 333 281 L 332 280 L 330 280 L 329 279 L 327 279 L 326 278 L 323 278 L 322 277 L 320 277 L 319 276 L 315 276 L 314 275 L 310 275 L 309 274 L 305 274 L 304 273 L 298 273 L 297 272 L 289 272 L 288 271 L 287 272 L 286 271 L 268 271 L 267 272 L 258 272 L 257 273 L 251 273 L 250 274 L 246 274 L 245 275 L 242 275 L 241 276 L 237 276 L 236 277 L 234 277 L 233 278 L 230 278 L 229 279 L 227 279 L 226 280 L 224 280 L 223 281 L 222 281 L 221 282 L 219 282 L 218 283 L 216 283 L 215 284 L 214 284 L 213 285 L 211 285 L 210 286 L 209 286 L 208 287 L 207 287 L 206 288 L 205 288 L 204 289 L 203 289 L 202 290 L 201 290 L 200 291 L 199 291 L 198 292 L 197 292 L 196 293 L 195 293 L 193 295 L 192 295 L 191 296 L 190 296 L 189 297 L 188 297 L 186 299 L 185 299 L 183 301 L 182 301 L 179 304 L 178 304 L 175 307 L 174 307 L 170 311 L 169 311 L 163 317 L 162 317 L 147 332 L 147 333 L 140 340 L 140 341 L 136 345 L 136 346 L 133 349 L 133 350 L 131 352 L 131 353 L 129 355 L 129 356 L 127 358 L 127 359 L 125 361 L 125 362 L 124 363 L 124 364 L 122 366 L 122 367 L 121 368 L 121 369 L 119 371 L 119 372 L 118 373 L 118 374 L 117 375 L 117 376 L 116 377 L 116 378 L 115 379 L 115 380 L 114 381 L 114 382 L 113 383 L 113 384 L 112 385 L 112 386 L 111 387 L 111 388 L 110 389 L 110 390 L 109 391 L 109 393 L 108 394 L 108 395 L 107 396 L 107 398 L 106 399 L 106 400 L 105 401 L 105 403 L 104 404 L 104 406 L 103 407 L 103 409 L 102 410 L 102 412 L 101 413 L 101 415 L 100 416 L 100 419 L 99 420 L 99 423 L 98 424 L 98 427 L 97 428 L 97 431 L 96 432 L 96 437 L 95 438 L 95 442 L 94 443 L 94 450 L 93 451 L 93 458 L 92 459 L 92 475 L 91 476 L 91 483 L 92 484 L 92 501 L 93 502 L 93 510 L 94 511 L 94 517 L 95 518 L 95 522 L 96 523 L 96 528 L 97 529 L 97 532 L 98 533 L 98 536 L 99 537 L 99 539 L 100 540 L 100 543 L 101 544 L 101 546 L 102 547 L 102 549 L 103 550 L 103 552 L 104 553 L 104 555 L 105 556 L 105 557 L 106 558 L 106 560 L 107 561 L 107 562 L 108 563 L 108 565 L 109 566 L 109 567 L 110 568 L 110 569 L 111 570 L 111 571 L 112 572 L 112 573 L 113 574 L 113 575 L 114 576 L 114 577 L 115 578 L 115 579 L 116 580 L 116 581 L 117 582 L 117 583 L 118 584 L 118 585 L 119 586 L 119 587 L 121 589 L 121 590 L 122 591 L 122 592 L 124 594 L 124 595 L 126 597 L 126 598 L 128 600 L 128 601 L 130 603 L 130 604 L 133 607 L 133 608 L 136 611 L 136 612 L 142 618 L 142 619 L 163 640 L 164 640 L 169 645 L 170 645 L 174 649 L 175 649 L 177 651 L 178 651 L 181 654 L 182 654 L 184 656 L 185 656 L 187 658 L 188 658 L 189 659 L 190 659 L 192 661 L 193 661 L 194 662 L 195 662 L 197 664 L 198 664 L 199 665 L 200 665 L 201 666 L 202 666 L 203 667 L 204 667 L 205 668 L 207 668 L 208 669 L 209 669 L 210 670 L 211 670 L 212 671 L 214 671 L 215 672 L 215 673 L 210 678 L 210 679 L 206 683 L 206 684 L 204 686 L 204 687 L 202 689 L 202 690 L 200 692 L 200 693 L 199 694 L 199 695 L 197 697 L 197 698 L 196 699 L 196 700 L 195 701 L 195 702 L 193 704 L 193 705 L 192 706 L 192 707 L 191 708 L 191 710 L 189 712 L 189 714 L 188 715 L 188 716 L 187 717 L 187 719 L 186 720 L 186 721 L 185 722 L 185 724 L 184 725 L 184 727 L 183 728 L 183 731 L 182 732 L 182 734 L 181 735 L 181 738 L 180 739 L 180 742 L 179 743 L 179 748 L 178 749 L 178 754 L 177 755 L 177 763 L 176 764 L 176 794 L 177 795 L 177 803 L 178 804 L 178 810 L 179 811 L 179 815 L 180 816 L 180 819 L 181 820 L 181 823 L 182 824 L 182 827 L 183 828 L 183 830 L 184 831 L 184 833 L 185 834 L 185 836 L 186 837 L 186 839 L 187 840 L 187 841 L 188 842 L 188 844 L 189 845 L 189 846 L 190 847 L 190 849 L 191 850 L 191 851 L 192 852 L 192 853 L 193 854 L 193 855 L 194 856 L 194 857 L 195 858 L 195 859 L 196 860 L 196 861 L 197 862 L 197 863 L 198 864 L 198 865 L 200 867 L 200 868 L 202 870 L 202 871 L 204 873 L 204 874 L 206 876 L 206 877 L 208 879 L 208 880 L 212 884 L 212 885 L 217 890 L 217 891 L 231 905 L 232 905 L 236 909 L 237 909 L 241 913 L 242 913 L 245 916 L 246 916 L 248 918 L 249 918 L 250 919 L 251 919 L 253 921 L 254 921 L 255 922 L 256 922 L 258 924 L 259 924 L 260 925 L 261 925 L 262 926 L 263 926 L 264 927 L 265 927 L 266 928 L 267 928 L 268 929 L 269 929 L 270 930 L 271 930 L 272 931 L 273 931 L 274 932 L 276 932 L 277 933 L 278 933 L 279 934 L 281 934 L 282 935 L 283 935 L 284 936 L 286 936 L 287 937 L 289 937 L 290 938 L 293 938 L 294 939 L 296 939 L 297 940 L 300 940 L 301 941 L 304 941 L 305 942 L 309 942 L 310 943 L 316 943 L 317 944 L 327 944 L 328 945 L 346 945 L 347 944 L 356 944 L 357 943 L 363 943 L 364 942 L 368 942 L 369 941 L 373 941 L 374 940 L 376 940 L 377 939 L 380 939 L 381 938 L 383 938 L 384 937 L 386 937 L 387 936 L 389 936 L 390 935 L 392 935 L 393 934 L 394 934 L 395 933 L 396 933 L 397 932 L 399 932 L 400 931 L 401 931 L 402 930 L 403 930 L 404 929 L 405 929 L 406 928 L 407 928 L 408 927 L 409 927 L 410 926 L 411 926 L 412 925 L 413 925 L 415 923 L 416 923 L 417 922 L 418 922 L 420 920 L 421 920 L 423 918 L 424 918 L 426 916 L 427 916 L 430 913 L 431 913 L 434 910 L 435 910 L 439 906 L 440 907 L 440 910 L 441 911 L 441 913 L 442 914 L 442 916 L 443 917 L 443 919 L 444 920 L 444 922 L 445 923 L 445 924 L 446 925 L 446 926 L 447 927 L 447 929 L 448 930 L 448 931 L 449 932 L 449 933 L 450 934 L 450 935 L 451 936 L 451 937 L 453 939 L 453 940 L 454 941 L 454 942 L 456 944 L 456 945 L 457 946 L 457 947 L 460 950 L 460 951 L 463 954 L 463 955 L 468 960 L 468 961 L 475 968 L 476 968 L 480 972 L 481 972 L 483 974 L 484 974 L 485 975 L 486 975 L 487 976 L 488 976 L 489 977 L 491 977 L 492 978 L 493 978 L 494 979 L 497 979 L 498 980 L 503 980 L 504 981 L 509 981 L 510 980 L 516 980 L 517 979 L 520 979 L 521 978 L 523 978 L 524 977 L 525 977 L 526 976 L 527 976 L 528 975 L 529 975 L 530 974 L 531 974 L 534 971 L 535 971 L 541 965 L 542 965 L 544 963 L 544 962 L 550 956 L 550 955 L 553 952 L 553 951 L 555 949 L 555 948 L 557 946 L 557 945 L 559 943 L 559 942 L 560 941 L 560 940 L 561 939 L 561 938 L 563 936 L 563 935 L 564 934 L 564 933 L 565 932 L 565 930 L 566 929 L 566 928 L 567 927 L 567 926 L 568 925 L 568 924 L 569 923 L 569 921 L 570 920 L 570 919 L 571 918 L 571 916 L 572 915 L 572 913 L 573 912 L 573 910 L 574 909 L 574 907 L 575 906 L 575 903 L 577 901 L 581 905 L 582 905 L 587 910 L 588 910 L 591 913 L 592 913 L 594 915 L 595 915 L 597 917 L 598 917 L 600 919 L 601 919 L 603 921 L 604 921 L 605 922 L 606 922 L 608 924 L 609 924 L 610 925 L 611 925 L 612 926 L 613 926 L 614 927 L 616 927 L 617 928 L 618 928 L 619 929 L 620 929 L 621 930 L 622 930 L 623 931 L 624 931 L 625 932 L 627 932 L 628 933 L 630 933 L 631 934 L 633 934 L 634 935 L 636 935 L 637 936 L 639 936 L 640 937 L 643 937 L 644 938 L 647 938 L 648 939 L 651 939 L 652 940 L 656 940 L 657 941 L 663 941 L 664 942 L 676 942 L 677 943 L 685 943 L 686 942 L 697 942 L 698 941 L 705 941 L 706 940 L 710 940 L 711 939 L 715 939 L 716 938 L 719 938 L 720 937 L 722 937 L 723 936 L 725 936 L 726 935 L 729 935 L 730 934 L 731 934 L 732 933 L 734 933 L 735 932 L 737 932 L 738 931 L 739 931 L 740 930 L 741 930 L 742 929 L 743 929 L 744 928 L 745 928 L 746 927 L 748 927 L 750 925 L 752 925 L 754 923 L 755 923 L 756 922 L 757 922 L 758 921 L 759 921 L 761 919 L 762 919 L 763 918 L 764 918 L 766 916 L 767 916 L 769 914 L 770 914 L 773 911 L 774 911 L 778 907 L 779 907 L 785 901 L 786 901 L 796 891 L 796 890 L 802 884 L 802 883 L 806 879 L 806 878 L 808 876 L 808 875 L 811 872 L 811 871 L 813 869 L 813 868 L 814 867 L 814 866 L 816 864 L 816 863 L 817 862 L 817 861 L 818 860 L 818 859 L 819 858 L 819 857 L 821 855 L 821 854 L 822 853 L 822 852 L 823 851 L 823 850 L 824 849 L 824 847 L 825 846 L 825 845 L 826 844 L 826 843 L 827 842 L 827 840 L 828 839 L 828 837 L 829 836 L 829 835 L 830 834 L 830 832 L 831 831 L 831 829 L 832 828 L 832 825 L 833 824 L 833 822 L 834 821 L 834 818 L 835 817 L 835 814 L 836 813 L 836 809 L 837 808 L 837 803 L 838 802 L 838 796 L 839 795 L 839 782 L 840 781 L 840 770 L 839 769 L 839 756 L 838 755 L 838 750 L 837 749 L 837 744 L 836 743 L 836 740 L 835 739 L 835 735 L 834 734 L 834 732 L 833 731 L 833 728 L 832 727 L 832 725 L 831 724 L 831 722 L 830 721 L 830 719 L 829 718 L 829 717 L 828 716 L 828 714 L 827 713 L 827 712 L 826 711 L 826 710 L 825 709 L 825 708 L 824 707 L 824 706 L 823 705 L 823 704 L 822 703 L 822 702 L 821 701 L 821 700 L 820 699 L 820 698 L 819 697 L 819 696 L 817 694 L 817 693 L 816 692 L 816 691 L 814 689 L 814 688 L 811 685 L 811 684 L 809 682 L 809 681 L 805 677 L 805 676 L 799 670 L 799 669 L 800 668 L 802 668 L 803 667 L 804 667 L 805 666 L 806 666 L 807 665 L 808 665 L 809 664 L 810 664 L 811 663 L 812 663 L 813 662 L 814 662 L 815 661 L 816 661 L 817 660 L 818 660 L 819 659 L 820 659 L 822 657 L 823 657 L 825 655 L 826 655 L 828 653 L 829 653 L 831 651 L 832 651 L 834 649 L 835 649 L 838 646 L 839 646 L 843 642 L 844 642 L 850 636 L 851 636 L 863 624 L 863 623 L 871 615 L 871 614 L 875 610 L 875 609 L 878 606 L 878 605 L 881 602 L 881 601 L 883 599 L 883 598 L 885 596 L 885 595 L 887 593 L 887 592 L 888 591 L 888 590 L 890 588 L 890 587 L 891 586 L 891 585 L 892 584 L 892 583 L 894 581 L 894 580 L 895 579 L 895 578 L 896 577 L 896 576 L 897 575 L 897 574 L 898 573 L 898 572 L 899 571 L 899 570 L 900 569 L 900 567 L 901 566 L 901 565 L 902 564 L 902 563 L 903 562 L 903 560 L 904 559 L 904 558 L 905 557 L 905 555 L 906 554 L 906 553 L 907 552 L 907 550 L 908 549 L 908 547 L 909 546 L 909 543 L 910 542 L 910 540 L 911 539 L 911 537 L 912 536 L 912 533 L 913 532 L 913 529 L 914 528 L 914 524 L 915 523 L 915 519 L 916 518 L 916 513 L 917 512 L 917 506 L 918 505 L 918 497 L 919 496 L 919 460 L 918 459 L 918 450 L 917 449 L 917 442 L 916 441 L 916 437 L 915 436 L 915 432 L 914 431 L 914 427 L 913 426 L 913 423 L 912 422 L 912 420 L 911 419 L 911 416 L 910 415 L 910 412 L 909 411 L 909 409 L 908 408 L 908 406 L 907 405 L 907 404 L 906 403 L 906 401 L 905 400 L 905 398 L 904 397 L 904 396 L 903 395 L 903 393 L 902 392 L 902 391 L 901 390 L 901 389 L 900 388 L 900 386 L 899 385 L 899 384 L 898 383 L 898 382 L 897 381 L 897 380 L 896 379 L 896 378 L 895 377 L 895 376 L 894 375 L 894 374 L 893 373 L 893 372 L 891 370 L 891 369 L 890 368 L 890 367 L 889 366 L 889 365 L 887 363 L 887 362 L 885 360 L 885 359 L 883 357 L 883 356 L 882 355 L 882 354 L 879 351 L 879 350 L 877 348 L 877 347 L 874 344 L 874 343 L 870 339 L 870 338 L 864 332 L 864 331 L 851 318 L 850 318 L 844 312 L 843 312 L 839 308 L 838 308 L 835 305 L 834 305 L 831 302 L 830 302 L 828 300 L 827 300 L 825 298 L 824 298 L 823 297 L 822 297 L 820 295 L 819 295 L 818 294 L 817 294 L 815 292 L 814 292 L 813 291 L 812 291 L 811 290 L 810 290 L 809 289 L 808 289 L 807 288 L 806 288 L 805 287 L 804 287 L 803 286 L 801 286 L 800 285 L 799 285 L 798 284 L 797 284 L 796 283 L 794 283 L 793 282 L 791 282 L 790 281 L 789 281 L 788 280 L 786 280 L 785 279 L 783 279 L 782 278 L 779 278 L 778 277 L 776 277 L 775 276 L 771 276 L 770 275 L 767 275 L 766 274 L 762 274 L 761 273 L 755 273 L 754 272 L 744 272 L 743 271 L 724 271 L 723 272 L 713 272 L 712 273 L 707 273 L 706 274 L 702 274 L 701 275 L 698 275 L 697 276 L 693 276 L 692 277 L 690 277 L 689 278 L 686 278 L 685 279 L 683 279 L 682 280 L 680 280 L 679 281 L 677 281 L 676 282 L 674 282 L 673 283 L 672 283 L 671 284 L 669 284 L 668 285 L 667 285 L 666 286 L 665 286 L 664 287 L 662 287 L 661 288 L 660 288 L 659 289 L 658 289 L 657 290 L 656 290 L 655 291 L 654 291 L 653 292 L 652 292 L 650 294 L 649 294 L 648 295 L 647 295 L 646 296 L 645 296 L 643 298 L 642 298 L 640 300 L 639 300 L 637 302 L 636 302 L 634 304 L 633 304 L 630 307 L 629 307 L 625 311 L 624 311 L 619 316 L 618 316 L 602 332 L 602 333 L 596 339 L 596 340 L 592 344 L 592 345 L 590 347 L 589 346 L 589 344 L 588 343 L 588 341 L 587 340 L 587 338 L 586 337 L 586 335 L 585 334 L 585 333 L 584 332 L 584 330 L 583 329 L 583 328 L 582 327 L 582 326 L 581 325 L 581 323 L 580 322 L 580 321 L 579 320 L 579 319 L 578 318 L 578 317 L 577 316 L 577 315 L 576 314 L 576 313 L 575 312 L 575 311 L 574 310 L 574 309 L 573 308 L 573 307 L 571 305 L 571 304 L 570 303 L 570 302 L 568 300 L 568 299 L 567 298 L 567 297 L 565 295 L 565 294 L 563 292 L 563 291 L 560 288 L 560 287 L 557 284 L 557 283 L 554 280 L 554 279 L 538 263 L 537 263 L 534 260 L 533 260 L 531 258 L 530 258 L 529 257 L 528 257 L 527 256 L 526 256 L 525 255 L 524 255 L 523 254 L 521 254 L 520 253 L 517 253 L 516 252 Z"/>
	<path d="M 530 36 L 529 37 L 528 37 L 527 38 L 525 38 L 523 40 L 522 40 L 521 41 L 520 41 L 518 43 L 517 43 L 516 44 L 515 44 L 513 46 L 512 46 L 510 48 L 509 48 L 505 52 L 504 52 L 500 56 L 499 56 L 487 68 L 487 69 L 482 74 L 482 75 L 480 77 L 480 78 L 477 81 L 477 82 L 476 83 L 476 84 L 474 86 L 474 87 L 473 88 L 473 89 L 472 90 L 472 91 L 471 92 L 471 93 L 470 94 L 470 95 L 469 96 L 469 97 L 468 98 L 468 99 L 467 100 L 467 102 L 466 103 L 466 104 L 465 105 L 465 107 L 464 108 L 464 111 L 463 112 L 463 114 L 462 115 L 462 119 L 461 120 L 461 128 L 460 129 L 460 141 L 459 142 L 459 148 L 458 149 L 458 168 L 459 169 L 459 172 L 460 173 L 460 175 L 461 176 L 461 177 L 462 178 L 462 179 L 463 180 L 463 181 L 464 182 L 464 183 L 465 184 L 465 185 L 466 186 L 466 187 L 468 189 L 468 190 L 470 192 L 470 193 L 472 195 L 472 196 L 474 198 L 474 199 L 476 201 L 476 202 L 478 204 L 478 205 L 479 206 L 479 207 L 481 209 L 481 210 L 482 211 L 482 212 L 483 213 L 483 214 L 485 216 L 485 217 L 487 219 L 487 220 L 492 225 L 493 225 L 495 227 L 497 227 L 498 228 L 504 228 L 505 227 L 507 227 L 508 226 L 510 226 L 511 225 L 513 225 L 514 224 L 515 224 L 516 223 L 517 223 L 518 222 L 520 222 L 521 221 L 522 221 L 523 220 L 524 220 L 525 219 L 526 219 L 527 218 L 528 218 L 529 217 L 530 217 L 531 216 L 532 216 L 533 215 L 534 215 L 535 214 L 536 214 L 537 213 L 538 213 L 540 211 L 541 211 L 542 210 L 543 210 L 545 208 L 546 208 L 547 207 L 548 207 L 550 205 L 551 205 L 554 202 L 555 202 L 561 196 L 561 195 L 563 193 L 563 192 L 565 190 L 565 188 L 566 187 L 566 186 L 567 185 L 567 183 L 568 182 L 568 179 L 569 178 L 569 170 L 570 169 L 570 165 L 569 164 L 569 156 L 568 155 L 568 151 L 567 150 L 567 147 L 566 146 L 566 143 L 565 142 L 565 140 L 564 139 L 564 138 L 563 137 L 563 136 L 562 135 L 562 133 L 560 131 L 560 130 L 559 129 L 559 128 L 557 126 L 557 125 L 555 123 L 555 122 L 552 119 L 552 118 L 549 115 L 549 114 L 546 111 L 546 110 L 543 107 L 543 106 L 541 104 L 541 103 L 540 102 L 540 101 L 538 99 L 538 98 L 537 97 L 537 96 L 536 95 L 536 94 L 535 93 L 535 92 L 534 91 L 534 90 L 533 89 L 533 87 L 532 86 L 532 84 L 531 83 L 531 81 L 530 80 L 530 76 L 529 75 L 529 59 L 530 58 L 530 55 L 531 54 L 531 52 L 532 51 L 532 49 L 533 48 L 533 46 L 534 45 L 534 44 L 535 43 L 535 41 L 536 40 L 536 39 L 535 38 L 535 37 L 534 36 Z"/>
</svg>
